<svg width="512" height="512" viewBox="0 0 512 512" xmlns="http://www.w3.org/2000/svg">
  <!-- Background -->
  <rect width="512" height="512" rx="64" fill="#1e293b"/>
  
  <!-- Calendar Icon -->
  <g transform="translate(128, 96)">
    <!-- Calendar Body -->
    <rect x="0" y="32" width="256" height="256" rx="16" fill="#f1f5f9" stroke="#64748b" stroke-width="4"/>
    
    <!-- Calendar Header -->
    <rect x="0" y="32" width="256" height="48" rx="16" fill="#3b82f6"/>
    
    <!-- Calendar Rings -->
    <circle cx="64" cy="16" r="12" fill="#64748b"/>
    <circle cx="192" cy="16" r="12" fill="#64748b"/>
    
    <!-- Ring holes -->
    <circle cx="64" cy="16" r="6" fill="#1e293b"/>
    <circle cx="192" cy="16" r="6" fill="#1e293b"/>
    
    <!-- Calendar Grid -->
    <g stroke="#cbd5e1" stroke-width="2" fill="none">
      <line x1="36" y1="112" x2="220" y2="112"/>
      <line x1="36" y1="144" x2="220" y2="144"/>
      <line x1="36" y1="176" x2="220" y2="176"/>
      <line x1="36" y1="208" x2="220" y2="208"/>
      <line x1="36" y1="240" x2="220" y2="240"/>
      
      <line x1="68" y1="96" x2="68" y2="272"/>
      <line x1="100" y1="96" x2="100" y2="272"/>
      <line x1="132" y1="96" x2="132" y2="272"/>
      <line x1="164" y1="96" x2="164" y2="272"/>
      <line x1="196" y1="96" x2="196" y2="272"/>
    </g>
    
    <!-- Expiry Warning -->
    <circle cx="180" cy="160" r="24" fill="#ef4444"/>
    <text x="180" y="168" text-anchor="middle" font-family="Arial" font-size="20" font-weight="bold" fill="white">!</text>
    
    <!-- Food Item -->
    <circle cx="84" cy="192" r="16" fill="#22c55e"/>
    <circle cx="84" cy="224" r="16" fill="#f59e0b"/>
    <circle cx="116" cy="160" r="16" fill="#8b5cf6"/>
  </g>
</svg>